<svg xmlns="http://www.w3.org/2000/svg" viewBox="0 0 24 24" width="32" height="32" fill="none" stroke="url(#g)" stroke-width="1.75" stroke-linecap="round" stroke-linejoin="round">
  <defs>
    <linearGradient id="g" x1="0" y1="0" x2="1" y2="1">
      <stop offset="0%" stop-color="#6366f1"/>
      <stop offset="100%" stop-color="#8b5cf6"/>
    </linearGradient>
  </defs>
  <path d="M2 9a3 3 0 0 1 0 6v2a2 2 0 0 0 2 2h16a2 2 0 0 0 2-2v-2a3 3 0 0 1 0-6V7a2 2 0 0 0-2-2H4a2 2 0 0 0-2 2Z"/>
  <path d="M13 5v2M13 17v2M13 11v2"/>
</svg>
